<svg xmlns="http://www.w3.org/2000/svg" xmlns:xlink="http://www.w3.org/1999/xlink" width="23" height="23" viewBox="0 0 23 23">
  <defs>
    <clipPath id="clip-path">
      <rect id="Rectangle_24458" data-name="Rectangle 24458" width="23" height="23" transform="translate(1424 39)" fill="#fff" stroke="#707070" stroke-width="1"/>
    </clipPath>
  </defs>
  <g id="Mask_Group_11" data-name="Mask Group 11" transform="translate(-1424 -39)" clip-path="url(#clip-path)">
    <g id="noun-support-1714972" transform="translate(1305.244 -25.628)">
      <path id="Path_272423" data-name="Path 272423" d="M122.507,213.255h-1.132c-.382,0-.773.028-1.152-.006l.226.031a.841.841,0,0,1-.184-.048l.2.085c-.034-.014-.065-.034-.1-.051-.127-.062.164.153.042.031s.071.13.04.057c-.017-.04-.042-.076-.059-.116l.085.2a.976.976,0,0,1-.048-.184c.011.076.02.15.031.226-.017-.212-.006-.433-.006-.645v-4.621c0-.263-.017-.532.006-.792-.011.076-.02.15-.031.226a.84.84,0,0,1,.048-.184l-.085.2c.014-.034.034-.065.051-.1.062-.127-.153.164-.031.042s-.13.071-.057.04c.04-.017.076-.042.116-.059l-.2.085a.973.973,0,0,1,.184-.048l-.226.031c.391-.034.792-.006,1.18-.006s.792-.028,1.18.006l-.226-.031a.838.838,0,0,1,.184.048l-.2-.085c.034.014.065.034.1.051.127.062-.164-.153-.042-.031s-.071-.13-.04-.057c.017.04.042.076.059.116l-.085-.2a.976.976,0,0,1,.048.184c-.011-.076-.02-.15-.031-.226.017.212.006.433.006.645v4.621c0,.263.017.532-.006.792.011-.076.02-.15.031-.226a.839.839,0,0,1-.048.184l.085-.2c-.014.034-.034.065-.051.1-.062.127.153-.164.031-.042s.13-.071.057-.04c-.04.017-.076.042-.116.059l.2-.085a.977.977,0,0,1-.184.048l.226-.031a.692.692,0,0,1-.076.006.849.849,0,1,0,0,1.7,1.572,1.572,0,0,0,1.542-1.579v-5.388c0-.158,0-.317,0-.475a1.574,1.574,0,0,0-1.573-1.551c-.7-.006-1.409,0-2.111,0a1.573,1.573,0,0,0-1.607,1.545c0,.139,0,.28,0,.419v5.427a1.563,1.563,0,0,0,1.2,1.559,5.359,5.359,0,0,0,1.044.04h1.505a.848.848,0,1,0,0-1.7Z" transform="translate(0 -133.721)" fill="#0077ac"/>
      <path id="Path_272424" data-name="Path 272424" d="M483.095,213.058h-1.088c-.366,0-.744.028-1.11-.006l.22.03a.817.817,0,0,1-.179-.047l.2.083c-.033-.014-.063-.033-.1-.05-.124-.061.16.149.041.03s.069.127.039.055c-.017-.039-.041-.074-.058-.113l.083.2a.952.952,0,0,1-.047-.179c.011.074.019.146.03.22-.017-.207-.005-.421-.005-.628v-4.5c0-.256-.017-.518.005-.771-.011.074-.019.146-.03.22a.818.818,0,0,1,.047-.179l-.083.2c.014-.033.033-.063.05-.1.061-.124-.149.16-.03.041s-.127.069-.055.039c.039-.017.074-.041.113-.058l-.2.083a.946.946,0,0,1,.179-.047l-.22.03c.375-.033.76-.006,1.137-.006s.763-.028,1.137.006l-.22-.03a.815.815,0,0,1,.179.047l-.2-.083c.033.014.063.033.1.05.124.061-.16-.149-.041-.03s-.069-.127-.039-.055c.017.039.041.074.058.113l-.083-.2a.951.951,0,0,1,.047.179c-.011-.074-.019-.146-.03-.22.017.207.005.421.005.628v4.5c0,.256.017.518-.005.771.011-.074.019-.146.03-.22a.819.819,0,0,1-.047.179l.083-.2c-.014.033-.033.063-.05.1-.061.124.149-.16.03-.041s.127-.069.055-.039c-.039.017-.074.041-.113.058l.2-.083a.952.952,0,0,1-.179.047l.22-.03c-.028,0-.052.006-.077.006a.826.826,0,0,0,0,1.652,1.53,1.53,0,0,0,1.5-1.537V207.93c0-.154,0-.308,0-.463a1.523,1.523,0,0,0-1.523-1.509c-.677-.006-1.358,0-2.035,0a1.528,1.528,0,0,0-1.564,1.5c0,.135,0,.273,0,.408v5.276a1.53,1.53,0,0,0,1.132,1.517,4.742,4.742,0,0,0,1.027.047h1.462a.826.826,0,0,0,0-1.652Z" transform="translate(-342.841 -133.72)" fill="#0077ac"/>
      <path id="Path_272425" data-name="Path 272425" d="M296.969,407.822h-.721a6.3,6.3,0,0,1-.78-.015l.235.032a1.636,1.636,0,0,1-.378-.1l.211.088a1.564,1.564,0,0,1-.24-.126c-.179-.117.129.12.023.023-.032-.029-.067-.059-.1-.091s-.062-.065-.091-.1c-.1-.111.126.2.035.038a2.664,2.664,0,0,1-.138-.255l.088.211a1.72,1.72,0,0,1-.1-.378c.012.079.021.155.032.235a1.558,1.558,0,0,1,0-.4c-.012.079-.021.155-.032.234a1.636,1.636,0,0,1,.1-.378l-.088.211a1.567,1.567,0,0,1,.126-.24c.117-.179-.12.129-.023.023.029-.032.059-.067.091-.1s.064-.062.1-.091c.111-.1-.2.126-.038.035a2.662,2.662,0,0,1,.255-.138l-.211.088a1.723,1.723,0,0,1,.378-.1l-.235.032a24.68,24.68,0,0,1,1.7,0l-.235-.032a1.639,1.639,0,0,1,.378.1l-.211-.088a1.567,1.567,0,0,1,.24.126c.179.117-.129-.12-.023-.023.032.029.067.059.1.091s.062.064.091.1c.1.111-.126-.2-.035-.038a2.659,2.659,0,0,1,.138.255l-.088-.211a1.721,1.721,0,0,1,.1.378c-.012-.079-.02-.155-.032-.234a1.558,1.558,0,0,1,0,.4c.012-.079.02-.155.032-.235a1.637,1.637,0,0,1-.1.378l.088-.211a1.568,1.568,0,0,1-.126.24c-.117.179.12-.129.023-.023-.029.032-.059.067-.091.1s-.065.062-.1.091c-.111.1.2-.126.038-.035a2.652,2.652,0,0,1-.255.138l.211-.088a1.719,1.719,0,0,1-.378.1l.235-.032a1.485,1.485,0,0,1-.2.015.88.88,0,0,0,0,1.759,2.459,2.459,0,0,0,1.973-1.041,2.374,2.374,0,0,0,.343-1.991,2.429,2.429,0,0,0-1.4-1.58,3.2,3.2,0,0,0-1.275-.193c-.308,0-.616,0-.923,0a2.4,2.4,0,0,0-2.378,2.838,2.39,2.39,0,0,0,1.158,1.645,4.91,4.91,0,0,0,2.5.322.88.88,0,1,0,0-1.759Z" transform="translate(-163.064 -322.628)" fill="#0077ac"/>
      <path id="Path_272426" data-name="Path 272426" d="M197.754,85.428h3.181a2.765,2.765,0,0,0,.9-.116,2.561,2.561,0,0,0,1.454-1.231,2.773,2.773,0,0,0,.3-1.247V75a15.129,15.129,0,0,0-.179-3.064,8.089,8.089,0,0,0-3.526-5.112,7.606,7.606,0,0,0-6.152-.906,7.915,7.915,0,0,0-4.772,3.911,8.314,8.314,0,0,0-.92,3.208c-.037.449-.024.9-.024,1.35v4.146a.789.789,0,1,0,1.577,0V73.933a9.66,9.66,0,0,1,.06-1.233c-.011.073-.018.143-.029.216a7.449,7.449,0,0,1,.481-1.831l-.079.195a7.5,7.5,0,0,1,.476-.957c.095-.157.192-.311.3-.462l.071-.1a.313.313,0,0,1,.042-.057.769.769,0,0,1-.071.095c.058-.073.116-.149.176-.222a7.01,7.01,0,0,1,.726-.763c.066-.059.131-.116.2-.173l.095-.078c.121-.1-.147.114-.021.019.145-.111.292-.216.442-.314a6.924,6.924,0,0,1,1.049-.565l-.189.081a6.819,6.819,0,0,1,1.78-.495l-.21.03a6.888,6.888,0,0,1,1.827,0l-.21-.03a6.924,6.924,0,0,1,1.78.495L198.1,67.7a7.137,7.137,0,0,1,.931.49c.152.1.3.2.45.306l.1.073a.305.305,0,0,1,.055.043.75.75,0,0,1-.092-.073c.071.059.145.119.216.181a7,7,0,0,1,.741.746c.058.068.113.135.168.2.026.032.05.065.076.1.1.124-.11-.151-.018-.022.108.149.21.3.3.454a7.267,7.267,0,0,1,.549,1.079l-.079-.195a7.336,7.336,0,0,1,.481,1.831c-.011-.073-.018-.143-.029-.216a12.375,12.375,0,0,1,.06,1.561v7.454c0,.381,0,.763,0,1.144a2.2,2.2,0,0,1-.013.23c.011-.073.018-.143.029-.216a1.862,1.862,0,0,1-.121.457l.079-.195a1.926,1.926,0,0,1-.147.284c-.013.019-.026.038-.039.059-.068.105.11-.135.05-.065-.037.038-.068.081-.105.119s-.068.065-.1.1c-.1.095.131-.095.066-.049-.018.014-.037.027-.058.041a1.8,1.8,0,0,1-.289.162l.189-.081a1.813,1.813,0,0,1-.444.124l.21-.03a10.337,10.337,0,0,1-1.262.014h-2.3a.81.81,0,0,0-.789.811.818.818,0,0,0,.791.806Z" transform="translate(-65.552 0)" fill="#0077ac"/>
    </g>
  </g>
</svg>
