<svg xmlns="http://www.w3.org/2000/svg" width="176.242" height="36.151" viewBox="0 0 176.242 36.151">
  <g id="Group_71361" data-name="Group 71361" transform="translate(-111.672 -6032.309)">
    <path id="Path_185" data-name="Path 185" d="M1315.6,503.321a17.574,17.574,0,1,1-17.6,17.53,17.567,17.567,0,0,1,17.6-17.53m-9.052,15.518c.043,1.981,1.468,2.855,2.905,3.72l-.073.146-1.464.077c.553,1.649,1.863,2.343,3.551,2.77a9.458,9.458,0,0,1-5.507,1.63c.317.156.474.246.641.313a16.424,16.424,0,0,0,4.959,1.186,10.436,10.436,0,0,0,7.221-1.858,11.207,11.207,0,0,0,4.629-9.186,1.117,1.117,0,0,1,.614-1.138,7.155,7.155,0,0,0,1.214-1.074l-.111-.147-1.747.264c.333-.371.6-.629.817-.921s.377-.6.563-.906a2.914,2.914,0,0,0-.955.262,2.213,2.213,0,0,1-2.365-.237,3.833,3.833,0,0,0-5.793,1.873,5.891,5.891,0,0,0-.223,1.659c-.006.448-.181.619-.581.591a10.226,10.226,0,0,1-1.607-.18,12.249,12.249,0,0,1-4.989-2.74c-.331-.274-.653-.559-1.072-.917a4.178,4.178,0,0,0,1.2,5.042l-.172.12-1.65-.349" transform="translate(-1185.826 5529.489)" fill="#0077ac" stroke="rgba(0,0,0,0)" stroke-width="1"/>
    <path id="Path_183" data-name="Path 183" d="M1733.673,0a17.575,17.575,0,1,1-17.548,17.586A17.581,17.581,0,0,1,1733.673,0m6.071,26.561h3.959c.377,0,.313-.282.313-.51,0-2.4.035-4.795-.024-7.19a8.377,8.377,0,0,0-.443-2.466,4.157,4.157,0,0,0-3.468-2.914,4.39,4.39,0,0,0-4.48,1.54,1.9,1.9,0,0,0-.182.379l-.207-.141v-1.51H1731V26.564c1.239,0,2.442-.024,3.644.011.5.015.606-.169.6-.633-.022-2.141-.014-4.282,0-6.422a4.421,4.421,0,0,1,.1-.979,2.307,2.307,0,0,1,2.286-1.774,1.941,1.941,0,0,1,2,1.8,10.65,10.65,0,0,1,.116,1.8c.013,2.03.005,4.059.005,6.189m-15.367-12.854a2.544,2.544,0,0,0-.047.3q0,6.066-.01,12.133c0,.354.157.43.466.427,1.061-.01,2.124-.028,3.184.007.511.017.645-.153.642-.654-.021-3.257-.011-6.515-.011-9.772,0-.677.016-1.355-.014-2.031-.006-.141-.185-.392-.288-.394-1.295-.027-2.59-.018-3.923-.018m2.084-1.77a2.23,2.23,0,1,0-.018-4.444,2.227,2.227,0,1,0,.018,4.444" transform="translate(-1510.557 6032.809)" fill="#0077ac" stroke="rgba(0,0,0,0)" stroke-width="1"/>
    <g id="Group_135" data-name="Group 135" transform="translate(252.265 6032.81)">
      <path id="Path_60" data-name="Path 60" d="M597.226,564.8a17.575,17.575,0,1,1-17.587,17.547A17.567,17.567,0,0,1,597.226,564.8m.017,7.827c-1.249,0-2.5-.012-3.748,0a5.98,5.98,0,0,0-6.025,5.976q-.05,3.779,0,7.558a5.966,5.966,0,0,0,5.972,5.963q3.778.053,7.558,0a5.967,5.967,0,0,0,5.963-5.974q.054-3.778,0-7.558a5.978,5.978,0,0,0-6.036-5.965c-1.228-.013-2.457,0-3.685,0" transform="translate(-579.639 -564.8)" fill="#0077ac" stroke="rgba(0,0,0,0)" stroke-width="1"/>
      <path id="Path_61" data-name="Path 61" d="M667.017,659.754c-1.145,0-2.29.007-3.434,0a3.885,3.885,0,0,1-4.132-4.1q-.024-3.5,0-6.994a3.864,3.864,0,0,1,4.059-4.1q3.528-.037,7.056,0a3.872,3.872,0,0,1,4.072,4.093q.024,3.5,0,6.994a3.888,3.888,0,0,1-4.125,4.1c-1.166.01-2.331,0-3.5,0m.059-12.594a4.992,4.992,0,1,0,4.954,5,5.022,5.022,0,0,0-4.954-5m6.042-.275a.839.839,0,1,0-.854.81.845.845,0,0,0,.854-.81" transform="translate(-649.465 -634.577)" fill="#0077ac" stroke="rgba(0,0,0,0)" stroke-width="1"/>
      <path id="Path_63" data-name="Path 63" d="M699.115,687.3a3.02,3.02,0,1,1,3.042-2.982,2.994,2.994,0,0,1-3.042,2.982" transform="translate(-681.559 -666.702)" fill="#0077ac" stroke="rgba(0,0,0,0)" stroke-width="1"/>
    </g>
    <path id="Path_184" data-name="Path 184" d="M0,562.373A17.574,17.574,0,1,1,17.527,579.98,17.569,17.569,0,0,1,0,562.373m12.545.83h2.07c.924,0,.924,0,.924.894,0,2.477.011,4.955-.009,7.432,0,.476.112.674.623.648a20.058,20.058,0,0,1,2.247,0c.571.035.7-.191.694-.721-.023-2.561,0-5.121-.019-7.682,0-.452.112-.633.594-.613.828.036,1.658.01,2.547.01l.4-3.528c-1.048,0-2-.014-2.95.007-.4.009-.566-.113-.549-.531.026-.644,0-1.291.011-1.936a1.217,1.217,0,0,1,1.359-1.345c.681-.007,1.363,0,2.115,0,0-1,.014-1.927-.019-2.856,0-.109-.266-.29-.417-.3-.664-.04-1.332-.048-2-.03a7.188,7.188,0,0,0-1.791.145,3.891,3.891,0,0,0-2.8,3.838c0,.969,0,1.938,0,2.975-.9,0-1.711.005-2.519,0-.307,0-.519.037-.512.43.017,1.017.006,2.035.006,3.165" transform="translate(158.87 5487.977)" fill="#0077ac" stroke="rgba(0,0,0,0)" stroke-width="1"/>
  </g>
</svg>
