<svg xmlns="http://www.w3.org/2000/svg" xmlns:xlink="http://www.w3.org/1999/xlink" width="78" height="30" viewBox="0 0 78 30">
  <defs>
    <clipPath id="clip-path">
      <path id="Path_267053" data-name="Path 267053" d="M313,34h11.793V46.545H313Zm0,0" transform="translate(-313 -34)"/>
    </clipPath>
    <clipPath id="clip-path-2">
      <path id="Path_267057" data-name="Path 267057" d="M459,0h2.965V3.014H459Zm0,0" transform="translate(-459)"/>
    </clipPath>
  </defs>
  <g id="Group_71355" data-name="Group 71355" transform="translate(-919 -2621)">
    <rect id="Rectangle_24446" data-name="Rectangle 24446" width="78" height="30" rx="15" transform="translate(919 2621)" fill="#fff"/>
    <g id="surface1" transform="translate(926.445 2628)">
      <path id="Path_267048" data-name="Path 267048" d="M172.839,14.112a1.684,1.684,0,0,1-1.746,1.144h-1.75l.691-2.57s1.107.006,1.839.006A.981.981,0,0,1,172.839,14.112Zm3.675-1.2c.284-2.25-1.43-3.189-3.571-3.189h-5.624L164,21.822h3.573l1-3.73,2.847.017s4.409.187,5.088-5.2" transform="translate(-142.511 -8.449)" fill="#2f3086"/>
      <path id="Path_267049" data-name="Path 267049" d="M92.12,34.973H95.38l-1.342,5.165s-.335,1.152.743,1.241c.851.07,1.484-.945,1.692-1.633.272-.9,1.332-4.772,1.332-4.772h3.358l-2.555,8.791H95.675l.36-1.256a4.654,4.654,0,0,1-3.718,1.605c-1.975-.194-2.146-1.627-1.8-3.414.168-.878,1.607-5.726,1.607-5.726" transform="translate(-78.531 -30.39)" fill="#2f3086"/>
      <path id="Path_267050" data-name="Path 267050" d="M249.647,39.077c-.558.142-1.236.219-1.37-.289-.369-1.39,2.886-1.8,2.886-1.8A2.25,2.25,0,0,1,249.647,39.077Zm4.923-2.544c.429-1.462.973-2.847.535-3.614-.669-1.175-1.878-1.278-3.647-1.278-1.954,0-4.368.371-5.154,2.97h3.254a1.43,1.43,0,0,1,1.518-.917c1.081.054,1.022.8.623,1.21-.7.721-2.628.321-4.765,1.063a3.615,3.615,0,0,0-2.115,4.083c.393.95,1.125,1.071,2.113,1.168a4.452,4.452,0,0,0,3.368-1.247c0,.576.015.9.015.9h3.424l-.008-.323s-.305-.081-.271-.509c.025-.314.616-1.824,1.11-3.5" transform="translate(-212.64 -27.495)" fill="#2f3086"/>
      <path id="Path_267051" data-name="Path 267051" d="M8.988,14.085c-.462,1.071-1.895.949-1.895.949l-1.668-.008.609-2.267s1.492.006,2.223.006C9.041,12.765,9.286,13.394,8.988,14.085Zm3.791-1.545c.284-2.249-1.7-2.817-3.835-2.817H3.319L0,21.822H3.573l1.116-4.108,2,.016s.827-.048.844.729c.018.829-.614,2.35-.573,3.363h3.671l-.008-.323s-.305-.081-.271-.509a12.726,12.726,0,0,1,.469-1.5,4.649,4.649,0,0,0,.368-1.78c-.027-.809-.535-1.185-1.267-1.447,2.282-.535,2.853-3.719,2.853-3.719" transform="translate(0 -8.449)" fill="#2f3086"/>
      <g id="Group_70409" data-name="Group 70409" transform="translate(41.013 4.455)" clip-path="url(#clip-path)">
        <path id="Path_267052" data-name="Path 267052" d="M316.1,34.973h3.319v5.274l2.872-5.274h3.047L319.2,45.636A5.4,5.4,0,0,1,317.921,47a2.911,2.911,0,0,1-1.514.387c-1.213-.01-2.676-.013-2.676-.013l.706-2.542,1.142,0a1.255,1.255,0,0,0,.725-.311,1.271,1.271,0,0,0,.291-.852c0-.54-.491-8.7-.491-8.7" transform="translate(-313.634 -34.845)" fill="#2f3086"/>
      </g>
      <path id="Path_267054" data-name="Path 267054" d="M409.419,19.473l-3.833,13.333,7.174-6.666Zm0,0" transform="translate(-352.441 -16.921)" fill="#108147"/>
      <path id="Path_267055" data-name="Path 267055" d="M390.669,19.473l-3.833,13.333,7.174-6.666Zm0,0" transform="translate(-336.148 -16.921)" fill="#f07322"/>
      <g id="Group_70410" data-name="Group 70410" transform="translate(60.144)" clip-path="url(#clip-path-2)">
        <path id="Path_267056" data-name="Path 267056" d="M460.913.135a1.321,1.321,0,1,0,1.321,1.321A1.323,1.323,0,0,0,460.913.135Zm0,2.773a1.452,1.452,0,1,1,1.452-1.452,1.454,1.454,0,0,1-1.452,1.452" transform="translate(-459.401 -0.003)" fill="#020202"/>
      </g>
      <path id="Path_267058" data-name="Path 267058" d="M462.917,8.393V7.485h-.339V7.363h.816v.122h-.34v.908h-.137" transform="translate(-401.965 -6.398)" fill="#020202"/>
      <path id="Path_267059" data-name="Path 267059" d="M470.387,8.393V7.363h.205l.244.729c.022.068.039.119.05.153.011-.038.03-.093.055-.165l.246-.717h.183v1.03h-.131V7.531l-.3.862h-.123l-.3-.877v.877h-.132" transform="translate(-408.751 -6.398)" fill="#020202"/>
    </g>
  </g>
</svg>
