<svg xmlns="http://www.w3.org/2000/svg" width="20.822" height="19.046" viewBox="0 0 20.822 19.046">
  <g id="Group_71303" data-name="Group 71303" transform="translate(-954.137 -627.541)">
    <g id="Iconly_Light-outline_Arrow_-_Down_2" data-name="Iconly/Light-outline/Arrow - Down 2" transform="translate(954.137 627.541)">
      <g id="Arrow_-_Down_2" data-name="Arrow - Down 2" transform="translate(0 0)">
        <path id="Arrow_-_Down_2-2" data-name="Arrow - Down 2" d="M.314.32a1.055,1.055,0,0,1,1.4-.105L1.822.32l8.589,8.754L19,.32A1.055,1.055,0,0,1,20.388.215l.12.105a1.109,1.109,0,0,1,.1,1.422l-.1.122-9.34,9.527a1.055,1.055,0,0,1-1.4.105l-.12-.105L.314,1.865A1.109,1.109,0,0,1,.314.32Z" transform="translate(0 0)" fill="#0077ac"/>
      </g>
    </g>
    <g id="Iconly_Light-outline_Arrow_-_Down_2-2" data-name="Iconly/Light-outline/Arrow - Down 2" transform="translate(954.137 634.875)" opacity="0.5">
      <g id="Arrow_-_Down_2-3" data-name="Arrow - Down 2" transform="translate(0 0)">
        <path id="Arrow_-_Down_2-4" data-name="Arrow - Down 2" d="M.314.32a1.055,1.055,0,0,1,1.4-.105L1.822.32l8.589,8.754L19,.32A1.055,1.055,0,0,1,20.388.215l.12.105a1.109,1.109,0,0,1,.1,1.422l-.1.122-9.34,9.527a1.055,1.055,0,0,1-1.4.105l-.12-.105L.314,1.865A1.109,1.109,0,0,1,.314.32Z" transform="translate(0 0)" fill="#0077ac"/>
      </g>
    </g>
  </g>
</svg>
