<svg xmlns="http://www.w3.org/2000/svg" width="25.517" height="18.555" viewBox="0 0 25.517 18.555">
  <g id="noun-tour-3636501" transform="translate(-96.75 -82.145)">
    <path id="Path_272400" data-name="Path 272400" d="M278.252,151.335a1.471,1.471,0,0,0-1.951-.784l-2.127.938-6.874-2.307a.463.463,0,0,0-.317,0l-1.607.7a.44.44,0,0,0-.022.8l4.888,2.506-3.69,1.625-3.465-1.664h0a.441.441,0,0,0-.37,0l-1.352.608a.44.44,0,0,0-.079.762l4.8,3.421a.467.467,0,0,0,.44.044l11.008-4.844a1.426,1.426,0,0,0,.722-1.805Zm-.823.7a.524.524,0,0,1-.277.295l-10.762,4.729-3.963-2.8.44-.2,3.465,1.664a.7.7,0,0,0,.189.044,1.2,1.2,0,0,0,.18-.035l4.72-2.078a.629.629,0,0,0,.141-.1.44.44,0,0,0-.119-.7l-4.888-2.506.608-.269,6.869,2.294a.541.541,0,0,0,.335-.022l2.285-1.013a.559.559,0,0,1,.775.687Z" transform="translate(-156.08 -63.637)" fill="#33ab51"/>
    <path id="Path_272401" data-name="Path 272401" d="M119.648,91.45a.44.44,0,0,0-.462.418,8.412,8.412,0,0,1-15.5,4.042c.881-.123,4.135-1.5,3.342-2.373a.441.441,0,0,0-.621,0,6.046,6.046,0,0,1-3.166,1.559c-4.263-9.414,8.318-16.768,14.465-8.441a.441.441,0,0,0,.727-.5c-6.688-9.075-20.436-1.308-16.107,9.084-3.523.4-7.3-2.422-2.294-4.174a.441.441,0,0,0-.264-.841,4.5,4.5,0,0,0-2.827,2.039c-1.176,3.082,3.523,4.209,5.817,3.813a9.292,9.292,0,0,0,17.309-4.161.44.44,0,0,0-.414-.462Z" transform="translate(0)" fill="#33ab51"/>
  </g>
</svg>
