<svg xmlns="http://www.w3.org/2000/svg" width="18.789" height="18.244" viewBox="0 0 18.789 18.244">
  <g id="noun-gift-card-2742102" transform="translate(-166.433 -101.654)">
    <path id="Path_272405" data-name="Path 272405" d="M183.772,107.9h-4.505a6.9,6.9,0,0,0,2.866-3.221,2.11,2.11,0,0,0-.843-2.579,2.807,2.807,0,0,0-3.046.034,6.281,6.281,0,0,0-2.468,3.041,6.281,6.281,0,0,0-2.467-3.041,2.768,2.768,0,0,0-3.049-.034,2.08,2.08,0,0,0-.843,2.579,6.874,6.874,0,0,0,2.88,3.221h-4.413a1.453,1.453,0,0,0-1.45,1.453v9.1a1.453,1.453,0,0,0,1.45,1.45h15.888a1.453,1.453,0,0,0,1.45-1.45v-9.1a1.453,1.453,0,0,0-1.45-1.453Zm0,10.856H176.34V112.16h7.738v6.288a.3.3,0,0,1-.307.3Zm-16.192-.3v-6.282h7.615v6.592h-7.311a.3.3,0,0,1-.3-.309Zm.3-9.406h7.311v1.978H167.58v-1.671a.3.3,0,0,1,.3-.307Zm16.192.307v1.674h-7.738v-1.978h7.434a.3.3,0,0,1,.3.3Zm-5.253-6.222a2.034,2.034,0,0,1,1.017-.318,1.433,1.433,0,0,1,.814.252.945.945,0,0,1,.387,1.249c-.513,1.556-2.92,3.319-4.691,3.562v-.1A5.915,5.915,0,0,1,178.822,103.127Zm-8.311,1.184a.942.942,0,0,1,.384-1.249h0a1.447,1.447,0,0,1,.814-.252,2.025,2.025,0,0,1,1.023.318,5.907,5.907,0,0,1,2.476,4.646v.1c-1.774-.244-4.184-2.006-4.7-3.563Z" transform="translate(0 0)" fill="#33ab51"/>
    <path id="Path_272406" data-name="Path 272406" d="M222.444,386.875h4.07a.573.573,0,0,0,0-1.146h-4.07a.573.573,0,0,0,0,1.146Z" transform="translate(-52.601 -269.536)" fill="#33ab51"/>
  </g>
</svg>
