<svg xmlns="http://www.w3.org/2000/svg" width="15.735" height="20.31" viewBox="0 0 15.735 20.31">
  <g id="noun-nearby-1932844" transform="translate(-143.92 -14)">
    <path id="Path_272403" data-name="Path 272403" d="M151.788,14a7.874,7.874,0,0,1,7.867,7.867c0,3.228-4.126,8.808-6.585,11.844a1.634,1.634,0,0,1-1.283.6,1.666,1.666,0,0,1-1.283-.6c-2.458-3.036-6.585-8.594-6.585-11.844A7.874,7.874,0,0,1,151.788,14Zm-.47,19.048a.55.55,0,0,0,.47.214.647.647,0,0,0,.47-.214c3.976-4.917,6.349-9.086,6.349-11.181a6.82,6.82,0,1,0-13.64,0C144.968,23.962,147.341,28.131,151.317,33.048Z" fill="#33ab51"/>
    <path id="Path_272404" data-name="Path 272404" d="M256.819,123.2a3.7,3.7,0,1,1-3.7,3.7A3.7,3.7,0,0,1,256.819,123.2Zm0,6.371a2.672,2.672,0,1,0-2.672-2.672A2.673,2.673,0,0,0,256.819,129.571Z" transform="translate(-105.032 -105.031)" fill="#33ab51"/>
  </g>
</svg>
