<svg xmlns="http://www.w3.org/2000/svg" width="20" height="20" viewBox="0 0 20 20">
  <g id="noun-calendar-5179614" transform="translate(-99.17 -29.168)">
    <path id="Path_77" data-name="Path 77" d="M115.682,31.029h-2.093V29.866a.7.7,0,1,0-1.4,0v1.163h-6.046V29.866a.7.7,0,1,0-1.4,0v1.163h-2.093a3.493,3.493,0,0,0-3.488,3.488V45.68a3.493,3.493,0,0,0,3.488,3.488h13.023a3.493,3.493,0,0,0,3.488-3.488V34.517a3.493,3.493,0,0,0-3.488-3.488Zm-15.116,3.488a2.1,2.1,0,0,1,2.093-2.093h2.093v1.163a.7.7,0,1,0,1.4,0V32.424h6.047v1.163a.7.7,0,1,0,1.4,0V32.424h2.093a2.1,2.1,0,0,1,2.093,2.093V35.68H100.566Zm15.116,13.256H102.658a2.1,2.1,0,0,1-2.093-2.093v-8.6h17.21v8.6a2.1,2.1,0,0,1-2.093,2.093Z" transform="translate(0 0)" fill="#cdcdcd"/>
    <path id="Path_78" data-name="Path 78" d="M188.682,281.006A1.008,1.008,0,1,1,187.674,280a1.008,1.008,0,0,1,1.008,1.008" transform="translate(-84.038 -240.916)" fill="#cdcdcd"/>
    <path id="Path_79" data-name="Path 79" d="M282.018,281.006A1.008,1.008,0,1,1,281.01,280a1.008,1.008,0,0,1,1.008,1.008" transform="translate(-173.685 -240.916)" fill="#cdcdcd"/>
    <path id="Path_80" data-name="Path 80" d="M375.348,281.006A1.008,1.008,0,1,1,374.34,280a1.008,1.008,0,0,1,1.008,1.008" transform="translate(-263.326 -240.916)" fill="#cdcdcd"/>
    <path id="Path_81" data-name="Path 81" d="M468.682,281.006A1.008,1.008,0,1,1,467.674,280a1.008,1.008,0,0,1,1.008,1.008" transform="translate(-352.971 -240.916)" fill="#cdcdcd"/>
    <path id="Path_82" data-name="Path 82" d="M188.682,374.342a1.008,1.008,0,1,1-1.008-1.008,1.008,1.008,0,0,1,1.008,1.008" transform="translate(-84.038 -330.562)" fill="#cdcdcd"/>
    <path id="Path_83" data-name="Path 83" d="M282.018,374.342a1.008,1.008,0,1,1-1.008-1.008,1.008,1.008,0,0,1,1.008,1.008" transform="translate(-173.685 -330.562)" fill="#cdcdcd"/>
    <path id="Path_84" data-name="Path 84" d="M375.348,374.342a1.008,1.008,0,1,1-1.008-1.008,1.008,1.008,0,0,1,1.008,1.008" transform="translate(-263.326 -330.562)" fill="#cdcdcd"/>
    <path id="Path_85" data-name="Path 85" d="M468.682,374.342a1.008,1.008,0,1,1-1.008-1.008,1.008,1.008,0,0,1,1.008,1.008" transform="translate(-352.971 -330.562)" fill="#cdcdcd"/>
  </g>
</svg>
