<svg xmlns="http://www.w3.org/2000/svg" width="25" height="22" viewBox="0 0 25 22">
  <g id="noun-online-flight-booking-portal-2205383" transform="translate(-69.998 -33.596)">
    <path id="Path_272397" data-name="Path 272397" d="M191.6,231.134c-.14-.511-1.445-.555-1.97-.38l-5.727,1.9-6.627-2.646-.7.746,2.836,3.406c-1.828.632-5.176,1.8-5.784,2-.523.174,3.381.728,4.276.579,0,0,6.877-2.243,9.917-3.255l2.345-.78c.523-.174,1.586-1.021,1.434-1.575Z" transform="translate(-99.884 -187.814)" fill="#33ab51"/>
    <path id="Path_272398" data-name="Path 272398" d="M140.534,309.93l-.531.491,1.409,1.644,2.042-.719Z" transform="translate(-66.738 -264.055)" fill="#33ab51"/>
    <path id="Path_272399" data-name="Path 272399" d="M93.5,33.6h-22A1.5,1.5,0,0,0,70,35.1v19a1.5,1.5,0,0,0,1.5,1.5h22A1.5,1.5,0,0,0,95,54.1v-19a1.5,1.5,0,0,0-1.5-1.5Zm-3.75,1a1,1,0,1,1-1,1A1,1,0,0,1,89.748,34.6ZM87,34.6a1,1,0,1,1-1,1A1,1,0,0,1,87,34.6Zm6.5,19.5h-22V37.6h22Zm-1-17.5a1,1,0,1,1,1-1A1,1,0,0,1,92.5,36.6Z" transform="translate(0 0)" fill="#33ab51"/>
  </g>
</svg>
