<svg xmlns="http://www.w3.org/2000/svg" width="22.597" height="21.793" viewBox="0 0 22.597 21.793">
  <g id="noun-wallet-2906884" transform="translate(349.032 113.361)">
    <path id="Path_272402" data-name="Path 272402" d="M127.565,51.714a2.825,2.825,0,0,0-2.824-2.824h-1.21V45.258A1.667,1.667,0,0,0,123,44.012a1.307,1.307,0,0,0-1.029-.367h-.052l-15.736,3.68a1.46,1.46,0,0,0-1.21,1.5v16.2a.4.4,0,0,0,.4.4h19.367a2.825,2.825,0,0,0,2.824-2.824ZM105.777,61.8V52.118h20.981V61.8Zm20.941-10.491H105.777V49.7h18.964a2.017,2.017,0,0,1,1.977,1.614Zm-20.433-3.188h.048l15.744-3.672a.51.51,0,0,1,.379.145.872.872,0,0,1,.266.662V48.89H105.777v-.061a.666.666,0,0,1,.508-.706Zm18.456,16.5H105.777V62.609h20.981a2.017,2.017,0,0,1-2.017,2.017Zm-5.9-6.246-2.219-4.035a.4.4,0,0,0-.71,0l-2.219,4.035a.4.4,0,0,0,.347.6h4.438a.414.414,0,0,0,.363-.6Zm-4.111-.21,1.537-2.792L117.8,58.17Z" transform="translate(-454 -157)" fill="#33ab51"/>
  </g>
</svg>
