<svg xmlns="http://www.w3.org/2000/svg" width="147" height="49.925" viewBox="0 0 147 49.925">
  <g id="Group_1" data-name="Group 1" transform="translate(-50 -8)">
    <path id="Path_25" data-name="Path 25" d="M387.582,301.488h1.431l2.243,6.445h-1.292l-1.048-3.43c-.219-.682-.421-1.417-.623-2.124h-.041c-.19.714-.392,1.443-.611,2.124l-1.056,3.43h-1.246Zm-.918,3.8H389.9v.9h-3.241Z" transform="translate(-279.897 -250.127)" fill="#0077ac"/>
    <path id="Path_26" data-name="Path 26" d="M449.165,301.488h2.2c1.414,0,2.454.405,2.454,1.588a1.447,1.447,0,0,1-.955,1.4v.04a1.5,1.5,0,0,1,1.321,1.529c0,1.289-1.128,1.892-2.643,1.892h-2.378Zm2.091,2.661c.96,0,1.368-.35,1.368-.911,0-.622-.45-.859-1.342-.859h-.9v1.77Zm.161,2.894c1.01,0,1.574-.339,1.574-1.064,0-.679-.547-.974-1.574-.974h-1.031v2.039Z" transform="translate(-334.542 -250.127)" fill="#0077ac"/>
    <path id="Path_27" data-name="Path 27" d="M494.152,301.488h2.319c1.431,0,2.533.473,2.533,1.912,0,1.386-1.1,2.015-2.533,2.015h-1.1v2.519h-1.221Zm2.192,3.011c.943,0,1.457-.366,1.457-1.1s-.514-1-1.457-1h-.972v2.1Zm-.1.61.884-.682,2.148,3.506H497.9Z" transform="translate(-373.056 -250.127)" fill="#0077ac"/>
    <path id="Path_28" data-name="Path 28" d="M534.337,301.488h1.431l2.243,6.445h-1.292l-1.048-3.43c-.219-.682-.422-1.417-.623-2.124h-.041c-.19.714-.392,1.443-.611,2.124l-1.056,3.43h-1.246Zm-.918,3.8h3.241v.9H533.42Z" transform="translate(-405.539 -250.127)" fill="#0077ac"/>
    <path id="Path_29" data-name="Path 29" d="M580.019,301.488h1.255l2.138,3.623.712,1.376h.041c-.059-.666-.156-1.483-.156-2.2v-2.8h1.162v6.445h-1.255l-2.138-3.629-.712-1.37h-.041c.059.682.155,1.459.155,2.176v2.823h-1.161Z" transform="translate(-446.569 -250.127)" fill="#0077ac"/>
    <path id="Path_30" data-name="Path 30" d="M629.331,301.488h1.835c2.108,0,3.354,1.064,3.354,3.2a2.966,2.966,0,0,1-3.291,3.248h-1.9Zm1.755,5.519c1.385,0,2.181-.738,2.181-2.322s-.8-2.271-2.181-2.271h-.534v4.593Z" transform="translate(-488.786 -250.127)" fill="#0077ac"/>
    <path id="Path_31" data-name="Path 31" d="M689.75,303.98c0-2.086,1.241-3.316,3.034-3.316s3.034,1.235,3.034,3.316-1.241,3.367-3.034,3.367-3.034-1.282-3.034-3.367m4.815,0c0-1.447-.7-2.322-1.781-2.322s-1.78.874-1.78,2.322.7,2.373,1.78,2.373,1.781-.926,1.781-2.373" transform="translate(-540.512 -249.422)" fill="#0077ac"/>
    <path id="Path_32" data-name="Path 32" d="M742.9,301.488h4.158v.962h-2.937v1.829h2.5v.962h-2.5v2.693H742.9Z" transform="translate(-586.015 -250.128)" fill="#0077ac"/>
    <path id="Path_33" data-name="Path 33" d="M797.405,301.488h2.319c1.431,0,2.533.473,2.533,1.912,0,1.386-1.1,2.015-2.533,2.015h-1.1v2.519h-1.221ZM799.6,304.5c.943,0,1.457-.366,1.457-1.1s-.514-1-1.457-1h-.972v2.1Zm-.1.61.884-.682,2.148,3.506h-1.372Z" transform="translate(-632.679 -250.127)" fill="#0077ac"/>
    <path id="Path_34" data-name="Path 34" d="M842.03,301.488h1.255l2.138,3.623.712,1.376h.041c-.059-.666-.155-1.483-.155-2.2v-2.8h1.161v6.445h-1.255l-2.138-3.629-.712-1.37h-.041c.059.682.156,1.459.156,2.176v2.823H842.03Z" transform="translate(-670.856 -250.127)" fill="#0077ac"/>
    <path id="Path_35" data-name="Path 35" d="M891.334,301.488h4.158v.962h-2.937v1.829h2.5v.962h-2.5v2.693h-1.221Z" transform="translate(-713.076 -250.128)" fill="#0077ac"/>
    <rect id="Rectangle_11" data-name="Rectangle 11" width="1.221" height="6.445" transform="translate(183.807 51.361)" fill="#0077ac"/>
    <path id="Path_36" data-name="Path 36" d="M390.833,116.162a12.719,12.719,0,0,0-1.387-.351,10.221,10.221,0,0,0-2.055-.184,8.091,8.091,0,0,0-1.421.134,8.585,8.585,0,0,0-1.054.234v14.019h-4.044V113.351a22.18,22.18,0,0,1,2.926-.819,18.228,18.228,0,0,1,3.893-.385c.267,0,.579.017.936.05s.713.079,1.07.134.7.123,1.036.2.6.15.8.218Z" transform="translate(-276.071 -88.012)" fill="#0077ac"/>
    <path id="Path_37" data-name="Path 37" d="M454.849,120.952a11.006,11.006,0,0,1,.685-4.049,8.505,8.505,0,0,1,1.822-2.894,7.511,7.511,0,0,1,2.607-1.74,8.07,8.07,0,0,1,3.009-.586,7.2,7.2,0,0,1,5.632,2.242q2.022,2.242,2.022,6.692c0,.222-.006.474-.016.752s-.028.531-.05.753H459.027a4.619,4.619,0,0,0,1.487,3.263,5.648,5.648,0,0,0,3.827,1.154,12.6,12.6,0,0,0,2.691-.267,11.137,11.137,0,0,0,1.922-.569l.535,3.313a6.449,6.449,0,0,1-.919.35,12.794,12.794,0,0,1-1.337.335q-.752.15-1.621.25a15.343,15.343,0,0,1-1.772.1,10.7,10.7,0,0,1-4.011-.687,7.453,7.453,0,0,1-2.808-1.907,7.815,7.815,0,0,1-1.637-2.877,11.753,11.753,0,0,1-.535-3.631m11.732-1.807a5.336,5.336,0,0,0-.234-1.59,3.854,3.854,0,0,0-.685-1.3,3.245,3.245,0,0,0-1.1-.87,3.515,3.515,0,0,0-1.554-.318,3.616,3.616,0,0,0-1.638.351,3.734,3.734,0,0,0-1.186.92,4.2,4.2,0,0,0-.752,1.3,7.016,7.016,0,0,0-.368,1.506Z" transform="translate(-339.401 -87.616)" fill="#0077ac"/>
    <path id="Path_38" data-name="Path 38" d="M587.086,82.094a10.991,10.991,0,0,1-2.992-.4,4.605,4.605,0,0,1-1.889-1.055,3.732,3.732,0,0,1-.986-1.706,8.679,8.679,0,0,1-.284-2.326V56.464l4.045-.669V75.837a5.5,5.5,0,0,0,.117,1.238,1.967,1.967,0,0,0,.417.853,1.873,1.873,0,0,0,.819.536,6.462,6.462,0,0,0,1.321.284Z" transform="translate(-447.353 -39.764)" fill="#0077ac"/>
    <path id="Path_39" data-name="Path 39" d="M639.185,64.128a2.325,2.325,0,0,1-.735,1.808,2.5,2.5,0,0,1-1.739.669,2.544,2.544,0,0,1-1.772-.669,2.325,2.325,0,0,1-.735-1.808,2.367,2.367,0,0,1,.735-1.84,2.543,2.543,0,0,1,1.772-.668,2.5,2.5,0,0,1,1.739.668,2.367,2.367,0,0,1,.735,1.84m-.435,22.619h-4.044v-17.5h4.044Z" transform="translate(-492.959 -44.751)" fill="#0077ac"/>
    <path id="Path_40" data-name="Path 40" d="M704.383,121.281a12.43,12.43,0,0,1-.518,3.681,8.619,8.619,0,0,1-1.487,2.878,6.621,6.621,0,0,1-2.424,1.873,7.788,7.788,0,0,1-3.292.669,8.1,8.1,0,0,1-2.273-.3,8.474,8.474,0,0,1-1.7-.668V136.2h-4.044V113.083q1.237-.334,3.042-.636a23.084,23.084,0,0,1,3.811-.3,10.212,10.212,0,0,1,3.711.636,7.75,7.75,0,0,1,2.791,1.824,8.03,8.03,0,0,1,1.771,2.877,10.984,10.984,0,0,1,.619,3.8m-4.144.066a6.532,6.532,0,0,0-1.22-4.216,4.767,4.767,0,0,0-3.928-1.505q-.568,0-1.186.05a6.516,6.516,0,0,0-1.221.218v10a6.22,6.22,0,0,0,1.421.687,5.549,5.549,0,0,0,1.888.318,3.617,3.617,0,0,0,3.226-1.506,7.119,7.119,0,0,0,1.02-4.049" transform="translate(-539.551 -88.007)" fill="#33ab51"/>
    <path id="Path_41" data-name="Path 41" d="M812.707,111.684a9.872,9.872,0,0,1,3.376.5,5.391,5.391,0,0,1,2.19,1.405,5.277,5.277,0,0,1,1.17,2.192,10.749,10.749,0,0,1,.351,2.827v10.607q-.936.2-2.825.485a28.937,28.937,0,0,1-4.262.284,12.743,12.743,0,0,1-2.875-.3,6.024,6.024,0,0,1-2.223-.97,4.57,4.57,0,0,1-1.437-1.74,6.039,6.039,0,0,1-.518-2.643,5.1,5.1,0,0,1,.585-2.542,4.8,4.8,0,0,1,1.587-1.69,6.865,6.865,0,0,1,2.323-.937,13.114,13.114,0,0,1,2.757-.284,12.418,12.418,0,0,1,1.4.084,13.108,13.108,0,0,1,1.571.284v-.669a5.243,5.243,0,0,0-.167-1.339,2.79,2.79,0,0,0-.585-1.121,2.744,2.744,0,0,0-1.1-.752,4.774,4.774,0,0,0-1.721-.268,15.243,15.243,0,0,0-2.573.2,11.23,11.23,0,0,0-1.906.469l-.5-3.279a15.767,15.767,0,0,1,2.24-.535,17.561,17.561,0,0,1,3.142-.268m.334,15.09a15.031,15.031,0,0,0,2.842-.2v-4.484a7.926,7.926,0,0,0-.97-.2,8.973,8.973,0,0,0-1.4-.1,9.246,9.246,0,0,0-1.354.1,4.211,4.211,0,0,0-1.237.368,2.251,2.251,0,0,0-.886.753,2.109,2.109,0,0,0-.334,1.221,2.142,2.142,0,0,0,.9,1.991,4.642,4.642,0,0,0,2.44.553" transform="translate(-639.707 -87.616)" fill="#33ab51"/>
    <path id="Path_42" data-name="Path 42" d="M921.17,114.707a127.558,127.558,0,0,1-6.273,18.069,18.131,18.131,0,0,1-1.372,2.576,7.651,7.651,0,0,1-1.572,1.773,5.594,5.594,0,0,1-1.941,1.021,9.3,9.3,0,0,1-4.333.118,6.243,6.243,0,0,1-1.389-.435l.736-3.245a6.567,6.567,0,0,0,2.384.468,3.707,3.707,0,0,0,2.468-.752,6.171,6.171,0,0,0,1.561-2.326q-1.914-3.681-3.676-8.031a88.042,88.042,0,0,1-3.138-9.235h4.312q.335,1.405.821,3.045t1.057,3.329q.57,1.69,1.207,3.363t1.276,3.112q1.065-2.977,2-6.341t1.7-6.508Z" transform="translate(-724.17 -90.2)" fill="#33ab51"/>
    <path id="Path_43" data-name="Path 43" d="M17.828,32.38c-.373-1.992,2.571-2.291,2.861-.529.332,1.965-2.571,2.25-2.861.529M1.658,19.884,19.818,1.667A5.741,5.741,0,0,1,23.674,0h.332a5.583,5.583,0,0,1,3.856,1.667l18.2,18.216a5.74,5.74,0,0,1,0,8.051l-18.2,18.216a5.552,5.552,0,0,1-4.022,1.667,5.69,5.69,0,0,1-4.022-1.667L1.658,27.935A5.837,5.837,0,0,1,0,24.329v-.854a5.9,5.9,0,0,1,1.658-3.592m10.7,12.5a1.455,1.455,0,0,1,2.861-.529c.332,1.965-2.57,2.25-2.861.529m21.559-5.462a1.434,1.434,0,1,1,2.819-.529,1.434,1.434,0,0,1-2.819.529m-10.9,0a1.517,1.517,0,0,1,1.037-1.694c.415-.108,4.768-.054,5.514-.054a1.477,1.477,0,0,1,.58,2.887c-.415.108-4.726.054-5.473.054-.912-.014-1.534-.42-1.658-1.193m-5.348,0c-.373-1.992,2.571-2.291,2.861-.529.332,1.965-2.571,2.25-2.861.529m-5.307,0a1.455,1.455,0,0,1,2.861-.529c.332,1.965-2.57,2.25-2.861.529m11.858-7.211A1.425,1.425,0,0,1,26,20.656a1.463,1.463,0,1,1-1.783-.949M13.6,22.567a1.574,1.574,0,0,1-1.285-1.5A1.549,1.549,0,0,1,13.6,19.64h5.224a1.474,1.474,0,1,1,0,2.928Zm16-8.119a1.482,1.482,0,0,1,.871,2.833,1.482,1.482,0,1,1-.871-2.833m-10.821.027c.5-.163,4.6-.081,5.473-.068a1.482,1.482,0,0,1,.663,2.873c-.58.163-4.644.068-5.556.054a1.461,1.461,0,0,1-.58-2.86m-5.348-.014a1.458,1.458,0,1,1,.746,2.819,1.458,1.458,0,1,1-.746-2.819" transform="translate(50 8)" fill="#0077ac" fill-rule="evenodd"/>
    <path id="Path_44" data-name="Path 44" d="M124.181,100.063a1.46,1.46,0,0,0,.58,2.858c.912.013,4.975.108,5.556-.054a1.481,1.481,0,0,0-.663-2.871c-.871-.014-4.975-.095-5.473.068" transform="translate(-55.399 -77.587)" fill="#fff" fill-rule="evenodd"/>
    <path id="Path_45" data-name="Path 45" d="M160.034,176.687c.124.772.746,1.178,1.658,1.192.746,0,5.058.054,5.473-.054a1.476,1.476,0,0,0-.58-2.885c-.746,0-5.1-.054-5.514.054a1.516,1.516,0,0,0-1.037,1.693" transform="translate(-86.993 -141.77)" fill="#fff" fill-rule="evenodd"/>
    <path id="Path_46" data-name="Path 46" d="M86.982,139.492h5.224a1.473,1.473,0,1,0,0-2.925H86.982a1.548,1.548,0,0,0-1.285,1.422,1.573,1.573,0,0,0,1.285,1.5" transform="translate(-23.383 -108.927)" fill="#fff" fill-rule="evenodd"/>
    <path id="Path_47" data-name="Path 47" d="M199.627,100.085a1.481,1.481,0,1,0,.87,2.83,1.481,1.481,0,0,0-.87-2.83" transform="translate(-119.988 -77.636)" fill="#fff" fill-rule="evenodd"/>
    <path id="Path_48" data-name="Path 48" d="M162.218,136.644a1.462,1.462,0,1,0,1.783.948,1.424,1.424,0,0,0-1.783-.948" transform="translate(-88.005 -108.936)" fill="#fff" fill-rule="evenodd"/>
    <path id="Path_49" data-name="Path 49" d="M86.941,100.264a1.457,1.457,0,1,0,.746,2.817,1.457,1.457,0,1,0-.746-2.817" transform="translate(-23.508 -77.801)" fill="#fff" fill-rule="evenodd"/>
    <path id="Path_50" data-name="Path 50" d="M122.724,177.12c.29,1.72,3.192,1.435,2.861-.528-.29-1.76-3.234-1.463-2.861.528" transform="translate(-55.063 -142.203)" fill="#fff" fill-rule="evenodd"/>
    <path id="Path_51" data-name="Path 51" d="M123.879,215.1c.29,1.72,3.192,1.435,2.861-.528-.29-1.76-3.234-1.463-2.861.528" transform="translate(-56.051 -174.724)" fill="#fff" fill-rule="evenodd"/>
    <path id="Path_52" data-name="Path 52" d="M85.829,177.12c.29,1.72,3.192,1.435,2.861-.528a1.455,1.455,0,0,0-2.861.528" transform="translate(-23.474 -142.203)" fill="#fff" fill-rule="evenodd"/>
    <path id="Path_53" data-name="Path 53" d="M85.829,215.1c.29,1.72,3.192,1.435,2.861-.528a1.455,1.455,0,0,0-2.861.528" transform="translate(-23.474 -174.724)" fill="#fff" fill-rule="evenodd"/>
    <path id="Path_54" data-name="Path 54" d="M235.869,176.987a1.434,1.434,0,0,0,2.819-.528,1.434,1.434,0,1,0-2.819.528" transform="translate(-151.911 -142.071)" fill="#fff" fill-rule="evenodd"/>
  </g>
</svg>
